<svg width="96" height="95" viewBox="0 0 96 95" fill="none" xmlns="http://www.w3.org/2000/svg">
<g clip-path="url(#clip0_204_2134)">
<path d="M0 48.5441L48.0527 0.5L87.5 39.5L95.4 46.7792L45.2125 94.5L0 48.5441Z" fill="url(#paint0_linear_204_2134)"/>
<path d="M95.473 13.6959L95.3662 0.0585794L82.2167 0L71.6653 10.31L61.4012 0L48.0594 0.107786L48 13.5553L57.8912 23.4903L48 33.4254L48.1069 46.826L61.2587 46.887L71.7365 36.6004L82.0718 46.887L95.4137 46.7792L95.473 33.3317L85.5818 23.3966L95.473 13.6959Z" fill="#E5E5E5"/>
<mask id="mask0_204_2134" style="mask-type:alpha" maskUnits="userSpaceOnUse" x="48" y="0" width="48" height="47">
<path d="M95.473 13.6959L95.3662 0.0585794L82.2167 0L71.6653 10.31L61.4012 0L48.0594 0.107786L48 13.5553L57.8912 23.4903L48 33.4254L48.1069 46.826L61.2587 46.887L71.7365 36.6004L82.0718 46.887L95.4137 46.7792L95.473 33.3317L85.5818 23.3966L95.473 13.6959Z" fill="#E5E7EB"/>
</mask>
<g mask="url(#mask0_204_2134)">
<path d="M51.3322 29.7222L65.4746 44.3672L63.7553 46.1475L49.613 31.5025L51.3322 29.7222Z" fill="#F9FAFB"/>
<path d="M62.1423 47.8177L63.2029 46.7193L49.0607 32.0738L48 33.1722V34.536L60.8259 47.8177H62.1423Z" fill="#F9FAFB"/>
<path d="M59.7213 47.8177L48 35.6798V39.2397L56.2836 47.8177H59.7213Z" fill="#F9FAFB"/>
<path d="M55.179 47.8177L48 40.3828V43.9435L51.7412 47.8177H55.179Z" fill="#F9FAFB"/>
<path d="M50.6367 47.8178L48 45.0867V47.8178H50.6367Z" fill="#F9FAFB"/>
<path d="M71.5707 23.4092H69.0504L71.5707 26.0184V23.4092Z" fill="#F9FAFB"/>
<path d="M71.5707 27.1622L67.9466 23.4092H64.5081L71.5707 30.7222V27.1622Z" fill="#F9FAFB"/>
<path d="M71.5707 31.8659L63.4043 23.4092H59.9658L71.5707 35.4259V31.8659Z" fill="#F9FAFB"/>
<path d="M71.5707 38.0541V36.5697L58.862 23.4092H57.4279L56.426 24.4467L70.5682 39.0922L71.5707 38.0541Z" fill="#F9FAFB"/>
<path d="M55.8746 25.0185L70.0169 39.6635L68.2977 41.4438L54.1553 26.7989L55.8746 25.0185Z" fill="#F9FAFB"/>
<path d="M53.6031 27.3704L67.7455 42.0153L66.0262 43.7957L51.8839 29.1507L53.6031 27.3704Z" fill="#F9FAFB"/>
<path d="M71.65 23.4091V21.7798L70.0766 23.4091H71.65Z" fill="#F9FAFB"/>
<path d="M67.5066 23.4091L71.65 19.1185V17.0036L65.4643 23.4091H67.5066Z" fill="#F9FAFB"/>
<path d="M62.8943 23.4091L71.65 14.3423V12.2274L60.8527 23.4091H62.8943Z" fill="#F9FAFB"/>
<path d="M57.5071 23.4092H58.2827L71.65 9.56618V8.76371L71.0163 8.10752L56.8741 22.753L57.5071 23.4092Z" fill="#F9FAFB"/>
<path d="M68.7102 5.71949L69.7312 6.77676L55.5889 21.4217L54.5679 20.3644L68.7102 5.71949Z" fill="#F9FAFB"/>
<path d="M66.4049 3.33169L67.4259 4.38897L53.2836 19.0339L52.2626 17.9766L66.4049 3.33169Z" fill="#F9FAFB"/>
<path d="M64.0985 0.944263L65.1195 2.00154L50.9772 16.6465L49.9562 15.5892L64.0985 0.944263Z" fill="#F9FAFB"/>
<path d="M48.6711 14.2584L62.8133 -0.387143L62.2215 -1H61.3629L48.0793 12.7564V13.6455L48.6711 14.2584Z" fill="#F9FAFB"/>
<path d="M56.7513 -1L48.0793 7.98018V10.095L58.7929 -1H56.7513Z" fill="#F9FAFB"/>
<path d="M52.139 -1L48.0793 3.20466V5.31884L54.1813 -1H52.139Z" fill="#F9FAFB"/>
<path d="M48.0792 -1V0.543312L49.5689 -1H48.0792Z" fill="#F9FAFB"/>
</g>
</g>
<defs>
<linearGradient id="paint0_linear_204_2134" x1="72.0315" y1="21.9813" x2="19.0293" y2="75.8507" gradientUnits="userSpaceOnUse">
<stop stop-color="#A59F9F"/>
<stop offset="1" stop-color="#D9D9D9" stop-opacity="0"/>
</linearGradient>
<clipPath id="clip0_204_2134">
<rect width="96" height="95" fill="white"/>
</clipPath>
</defs>
</svg>
