<svg width="96" height="95" viewBox="0 0 96 95" fill="none" xmlns="http://www.w3.org/2000/svg">
<g clip-path="url(#clip0_204_2261)">
<path d="M-0.75 49.2858L48.5503 0.0400085L60.6383 36.6922L95.9543 46.94L44.8494 95.5722L-0.75 49.2858Z" fill="url(#paint0_linear_204_2261)"/>
<path d="M48.4814 0.0400085V19.5755L53.1701 23.4835H71.9249V3.94569L67.2362 0.0400085H48.4814Z" fill="#E5E5E5"/>
<path d="M95.9544 0.0400085V19.5755L91.1485 23.4835H71.9248V3.94569L76.7307 0.0400085H95.9544Z" fill="#E5E5E5"/>
<path d="M95.9544 46.927V27.3892L91.1485 23.4835H71.9248V43.0189L76.7307 46.927H95.9544Z" fill="#E5E5E5"/>
<path d="M48.4814 27.3892V43.0189L53.1701 46.927H67.2362L71.9249 43.0189V23.4835H67.2362H53.1701L48.4814 27.3892Z" fill="#E5E5E5"/>
<mask id="mask0_204_2261" style="mask-type:alpha" maskUnits="userSpaceOnUse" x="71" y="-1" width="25" height="26">
<path d="M95.964 -0.949997H93.3068L95.964 1.8105V-0.949997Z" fill="#F9FAFB"/>
<path d="M95.964 2.98199L92.1792 -0.949997H88.6695L95.964 6.62823V2.98199Z" fill="#F9FAFB"/>
<path d="M95.964 7.7997L87.5419 -0.949997H84.0322L95.964 11.4459V7.7997Z" fill="#F9FAFB"/>
<path d="M95.964 12.6174L82.9045 -0.949997H79.3948L95.964 16.2636V12.6174Z" fill="#F9FAFB"/>
<path d="M95.964 19.0498V17.4351L78.2679 -0.949997H76.713L75.7349 0.0654196L94.9866 20.066L95.964 19.0498Z" fill="#F9FAFB"/>
<path d="M75.1718 0.651678L94.4229 20.6516L92.6677 22.4751L73.4166 2.47517L75.1718 0.651678Z" fill="#F9FAFB"/>
<path d="M92.1044 23.0602L72.8527 3.06041L71.9 4.05017V5.71688L89.5467 24.05H91.1511L92.1044 23.0602Z" fill="#F9FAFB"/>
<path d="M71.9 10.5345L84.9094 24.0499H88.4198L71.9 6.88756V10.5345Z" fill="#F9FAFB"/>
<path d="M71.9001 15.3521L80.2721 24.0498H83.7825L71.9001 11.7052V15.3521Z" fill="#F9FAFB"/>
<path d="M71.9 20.17L75.6347 24.0499H79.1451L71.9 16.523V20.17Z" fill="#F9FAFB"/>
<path d="M71.9 24.0499H74.5078L71.9 21.3407V24.0499Z" fill="#F9FAFB"/>
</mask>
<g mask="url(#mask0_204_2261)">
<path d="M95.9296 0.0500031V19.5855L91.1236 23.4935H71.9V3.95569L76.7059 0.0500031H95.9296Z" fill="#F9FAFB"/>
</g>
</g>
<defs>
<linearGradient id="paint0_linear_204_2261" x1="71.8979" y1="22.5321" x2="18.5159" y2="76.8612" gradientUnits="userSpaceOnUse">
<stop stop-color="#A59F9F"/>
<stop offset="1" stop-color="#D9D9D9" stop-opacity="0"/>
</linearGradient>
<clipPath id="clip0_204_2261">
<rect width="96" height="95" fill="white"/>
</clipPath>
</defs>
</svg>
