<?xml version="1.0" encoding="UTF-8" standalone="no"?>
<svg
   width="96"
   height="95"
   viewBox="0 0 96 95"
   fill="none"
   version="1.1"
   id="svg16"
   sodipodi:docname="illo-2.svg"
   inkscape:version="1.3.2 (091e20ef0f, 2023-11-25)"
   xmlns:inkscape="http://www.inkscape.org/namespaces/inkscape"
   xmlns:sodipodi="http://sodipodi.sourceforge.net/DTD/sodipodi-0.dtd"
   xmlns="http://www.w3.org/2000/svg"
   xmlns:svg="http://www.w3.org/2000/svg">
  <sodipodi:namedview
     id="namedview16"
     pagecolor="#ffffff"
     bordercolor="#000000"
     borderopacity="0.25"
     inkscape:showpageshadow="2"
     inkscape:pageopacity="0.0"
     inkscape:pagecheckerboard="0"
     inkscape:deskcolor="#d1d1d1"
     inkscape:zoom="9.1684211"
     inkscape:cx="48.04535"
     inkscape:cy="34.411596"
     inkscape:window-width="3798"
     inkscape:window-height="2082"
     inkscape:window-x="0"
     inkscape:window-y="0"
     inkscape:window-maximized="1"
     inkscape:current-layer="svg16" />
  <g
     clip-path="url(#clip0_204_2167)"
     id="g15"
     transform="matrix(1.0350855,0,0,1.0414584,0.46226944,-3.9845627)">
    <path
       d="M -3.75,53.548 45.2515,4 57.2663,40.8771 92.18,51 41.5731,100.118 Z"
       fill="url(#paint0_linear_204_2167)"
       id="path1"
       style="fill:url(#paint0_linear_204_2167)" />
    <path
       d="M 45,4 V 50.887 H 91.887 V 4 Z m 23.4435,37.5096 c -7.7692,0 -14.0661,-6.297 -14.0661,-14.0661 0,-7.7692 6.2969,-14.0661 14.0661,-14.0661 7.7691,0 14.0661,6.2969 14.0661,14.0661 0,7.7691 -6.297,14.0661 -14.0661,14.0661 z"
       fill="#e5e7eb"
       id="path2" />
    <mask
       id="mask0_204_2167"
       maskUnits="userSpaceOnUse"
       x="68"
       y="26"
       width="24"
       height="25">
      <path
         d="m 92,26.4008 v 2.7235 l -2.6647,-2.7235 z"
         fill="#f9fafb"
         id="path3" />
      <path
         d="M 88.2113,26.4008 92,30.2741 v 3.5786 l -7.2898,-7.4519 z"
         fill="#f9fafb"
         id="path4" />
      <path
         d="m 82.3997,26.4007 h 1.1866 L 92,35.0023 v 3.5785 L 82.2393,28.6021 C 82.3445,27.884 82.3997,27.1488 82.3997,26.4 Z"
         fill="#f9fafb"
         id="path5" />
      <path
         d="M 82.0635,29.5724 92,39.7308 v 3.5786 L 81.2065,32.2749 c 0.3669,-0.8611 0.6559,-1.7651 0.857,-2.7025 z"
         fill="#f9fafb"
         id="path6" />
      <path
         d="M 80.847,33.0569 92,44.459 v 3.5786 L 79.5013,35.2597 c 0.5093,-0.6895 0.9601,-1.4261 1.3457,-2.2028 z"
         fill="#f9fafb"
         id="path7" />
      <path
         d="M 79.0012,35.8981 92,49.1872 v 1.7495 H 90.2109 L 77.248,37.6844 c 0.6332,-0.5433 1.2199,-1.1409 1.7539,-1.7863 z"
         fill="#f9fafb"
         id="path8" />
      <path
         d="M 76.6208,38.1929 89.0862,50.9367 H 85.5858 L 74.4588,39.5612 c 0.7617,-0.3915 1.4855,-0.8496 2.1626,-1.3676 z"
         fill="#f9fafb"
         id="path9" />
      <path
         d="m 73.6917,39.9267 10.7695,11.01 H 80.9608 L 71.0383,40.7926 c 0.9202,-0.2022 1.8078,-0.4935 2.6534,-0.8666 z"
         fill="#f9fafb"
         id="path10" />
      <path
         d="m 70.0855,40.9682 9.7507,9.9685 H 76.3358 L 68,42.4147 v -1.292 c 0.7085,0 1.4043,-0.0531 2.0855,-0.1545 z"
         fill="#f9fafb"
         id="path11" />
      <path
         d="M 71.7108,50.9367 68,47.143 v -3.5792 l 7.2112,7.3729 z"
         fill="#f9fafb"
         id="path12" />
      <path
         d="m 68,50.9367 v -2.6446 l 2.5862,2.6446 z"
         fill="#f9fafb"
         id="path13" />
    </mask>
    <g
       mask="url(#mask0_204_2167)"
       id="g14">
      <path
         d="M 45,3.93671 V 50.8237 H 91.887 V 3.93671 Z M 68.4435,41.4463 c -7.7692,0 -14.0661,-6.2969 -14.0661,-14.0661 0,-7.7692 6.2969,-14.0661 14.0661,-14.0661 7.7691,0 14.0661,6.2969 14.0661,14.0661 0,7.7692 -6.297,14.0661 -14.0661,14.0661 z"
         fill="#f9fafb"
         id="path14" />
    </g>
  </g>
  <defs
     id="defs16">
    <linearGradient
       id="paint0_linear_204_2167"
       x1="68.4577"
       y1="26.6301"
       x2="14.7406"
       y2="80.6375"
       gradientUnits="userSpaceOnUse">
      <stop
         stop-color="#A59F9F"
         id="stop15" />
      <stop
         offset="1"
         stop-color="#D9D9D9"
         stop-opacity="0"
         id="stop16" />
    </linearGradient>
    <clipPath
       id="clip0_204_2167">
      <rect
         width="96"
         height="95"
         fill="white"
         id="rect16" />
    </clipPath>
  </defs>
</svg>
