<svg width="716" height="236" viewBox="0 0 716 236" fill="none" xmlns="http://www.w3.org/2000/svg">
<g clip-path="url(#clip0_121_3088)">
<path d="M3.4231 3H112.577V11.1714H11.5433V104.829H112.577V113H3.4231V3ZM53.8619 53.9143H112.577V62.0857H53.8619V53.9143ZM36.9969 36.9429H112.577V45.1143H45.2732V70.8857H112.577V79.0572H36.9969V36.9429ZM28.4082 87.8571H112.577V96.0286H20.2881V19.9714H112.577V28.1429H28.4082V87.8571Z" fill="#1E1E1E"/>
<path fill-rule="evenodd" clip-rule="evenodd" d="M0.423096 0H115.577V14.1714H14.5433V101.829H115.577V116H0.423096V0ZM11.5433 104.829V11.1714H112.577V3H3.4231V113H112.577V104.829H11.5433ZM50.8619 50.9143H115.577V65.0857H50.8619V50.9143ZM33.9969 33.9429H115.577V48.1143H48.2732V67.8857H115.577V82.0572H33.9969V33.9429ZM45.2732 70.8857V45.1143H112.577V36.9429H36.9969V79.0572H112.577V70.8857H45.2732ZM115.577 84.8571V99.0286H17.2881V16.9714H115.577V31.1429H31.4082V84.8571H115.577ZM28.4082 87.8571V28.1429H112.577V19.9714H20.2881V96.0286H112.577V87.8571H28.4082ZM53.8619 53.9143V62.0857H112.577V53.9143H53.8619Z" fill="url(#paint0_linear_121_3088)"/>
<path d="M122.577 3H232.577V113H122.577V3ZM181.663 53.9143V62.0857H173.491V53.9143H181.663ZM156.52 36.9429H198.634V79.0572H156.52V36.9429ZM190.463 70.8857V45.1143H164.691V70.8857H190.463ZM139.548 19.9714H215.605V96.0286H139.548V19.9714ZM207.434 87.8571V28.1429H147.72V87.8571H207.434ZM224.405 104.829V11.1714H130.748V104.829H224.405Z" fill="#1E1E1E"/>
<path fill-rule="evenodd" clip-rule="evenodd" d="M119.577 0H235.577V116H119.577V0ZM184.663 50.9143V65.0857H170.491V50.9143H184.663ZM153.52 33.9429H201.634V82.0572H153.52V33.9429ZM136.548 16.9714H218.605V99.0286H136.548V16.9714ZM190.463 45.1143V70.8857H164.691V45.1143H190.463ZM167.691 48.1143V67.8857H187.463V48.1143H167.691ZM147.72 28.1429V87.8571H207.434V28.1429H147.72ZM204.434 31.1429H150.72V84.8571H204.434V31.1429ZM130.748 11.1714V104.829H224.405V11.1714H130.748ZM221.405 14.1714H133.748V101.829H221.405V14.1714ZM122.577 3V113H232.577V3H122.577ZM181.663 53.9143H173.491V62.0857H181.663V53.9143ZM156.52 36.9429V79.0572H198.634V36.9429H156.52ZM139.548 19.9714V96.0286H215.605V19.9714H139.548Z" fill="url(#paint1_linear_121_3088)"/>
<path d="M250.76 108.914V113H242.577V3H282.234L297.656 18.2429L312.92 3H352.577V113H344.394V11.1714H316.382L301.747 25.7857V113H293.564V25.7857L278.929 11.1714H250.76V108.914ZM267.756 28.1429V113H259.573V19.9714H273.893L284.751 30.8143V113H276.411V34.2714L270.431 28.1429H267.756ZM335.739 19.9714V113H327.398V28.1429H324.723L318.743 34.2714V113H310.56V30.8143L321.418 19.9714H335.739Z" fill="#1E1E1E"/>
<path fill-rule="evenodd" clip-rule="evenodd" d="M253.76 116H239.577V0H283.466L297.645 14.0141L311.679 0H355.577V116H341.394V14.1714H317.624L304.747 27.0296V116H290.564V27.0296L277.687 14.1714H253.76V116ZM278.929 11.1714L293.564 25.7857V113H301.747V25.7857L316.382 11.1714H344.394V113H352.577V3H312.92L297.656 18.2429L282.234 3H242.577V113H250.76V11.1714H278.929ZM270.756 116H256.573V16.9714H275.134L287.751 29.5704V116H273.411V35.4926L270.756 32.7714V116ZM270.431 28.1429L276.411 34.2714V113H284.751V30.8143L273.893 19.9714H259.573V113H267.756V28.1429H270.431ZM338.739 16.9714V116H324.398V32.7714L321.743 35.4926V116H307.56V29.5704L320.177 16.9714H338.739ZM318.743 34.2714L324.723 28.1429H327.398V113H335.739V19.9714H321.418L310.56 30.8143V113H318.743V34.2714Z" fill="url(#paint2_linear_121_3088)"/>
<path d="M362.577 3H472.577V11.1714H421.663V104.829H472.577V113H362.577V104.829H413.491V11.1714H362.577V3ZM472.577 53.9143V62.0857H464.406V53.9143H472.577ZM455.605 70.8857H472.577V79.0571H447.434V36.9429H472.577V45.1143H455.605V70.8857ZM438.634 87.8571H472.577V96.0286H430.463V19.9714H472.577V28.1429H438.634V87.8571ZM362.577 62.0857V53.9143H370.748V62.0857H362.577ZM387.72 79.0571H362.577V70.8857H379.548V45.1143H362.577V36.9429H387.72V79.0571ZM404.691 96.0286H362.577V87.8571H396.52V28.1429H362.577V19.9714H404.691V96.0286Z" fill="#1E1E1E"/>
<path fill-rule="evenodd" clip-rule="evenodd" d="M359.577 0H475.577V14.1714H424.663V101.829H475.577V116H359.577V101.829H410.491V14.1714H359.577V0ZM413.491 11.1714V104.829H362.577V113H472.577V104.829H421.663V11.1714H472.577V3H362.577V11.1714H413.491ZM475.577 50.9143V65.0857H461.406V50.9143H475.577ZM475.577 67.8857V82.0571H444.434V33.9429H475.577V48.1143H458.605V67.8857H475.577ZM455.605 70.8857V45.1143H472.577V36.9429H447.434V79.0571H472.577V70.8857H455.605ZM475.577 84.8571V99.0286H427.463V16.9714H475.577V31.1429H441.634V84.8571H475.577ZM438.634 87.8571V28.1429H472.577V19.9714H430.463V96.0286H472.577V87.8571H438.634ZM359.577 65.0857V50.9143H373.748V65.0857H359.577ZM390.72 82.0571H359.577V67.8857H376.548V48.1143H359.577V33.9429H390.72V82.0571ZM379.548 45.1143V70.8857H362.577V79.0571H387.72V36.9429H362.577V45.1143H379.548ZM407.691 99.0286H359.577V84.8571H393.52V31.1429H359.577V16.9714H407.691V99.0286ZM396.52 28.1429V87.8571H362.577V96.0286H404.691V19.9714H362.577V28.1429H396.52ZM472.577 53.9143H464.406V62.0857H472.577V53.9143ZM362.577 62.0857H370.748V53.9143H362.577V62.0857Z" fill="url(#paint3_linear_121_3088)"/>
<path d="M490.76 108.914V113H482.577V3H541.747V104.829H584.551V3H592.577V113H533.564V11.1714H490.76V108.914ZM550.56 96.0286V3H558.743V87.8571H567.555V3H575.739V96.0286H550.56ZM524.751 108.914V113H516.568V28.1429H507.756V113H499.573V19.9714H524.751V108.914Z" fill="#1E1E1E"/>
<path fill-rule="evenodd" clip-rule="evenodd" d="M493.76 116H479.577V0H544.747V101.829H581.551V0H595.577V116H530.564V14.1714H493.76V116ZM533.564 11.1714V113H592.577V3H584.551V104.829H541.747V3H482.577V113H490.76V11.1714H533.564ZM547.56 99.0286V0H561.743V84.8571H564.555V0H578.739V99.0286H547.56ZM567.555 87.8571H558.743V3H550.56V96.0286H575.739V3H567.555V87.8571ZM527.751 116H513.568V31.1429H510.756V116H496.573V16.9714H527.751V116ZM507.756 113H499.573V19.9714H524.751V113H516.568V28.1429H507.756V113Z" fill="url(#paint4_linear_121_3088)"/>
<path d="M602.577 3H712.577V11.1714H610.76V53.9143H712.577V113H602.577V3ZM627.756 36.9429H712.577V45.1143H619.573V19.9714H712.577V28.1429H627.756V36.9429ZM695.739 70.8857V96.0286H619.573V70.8857H695.739ZM627.756 87.8571H687.398V79.0571H627.756V87.8571ZM704.551 62.0857H610.76V104.829H704.551V62.0857Z" fill="#1E1E1E"/>
<path fill-rule="evenodd" clip-rule="evenodd" d="M599.577 0H715.577V14.1714H613.76V50.9143H715.577V116H599.577V0ZM610.76 53.9143V11.1714H712.577V3H602.577V113H712.577V53.9143H610.76ZM715.577 33.9429V48.1143H616.573V16.9714H715.577V31.1429H630.756V33.9429H715.577ZM627.756 36.9429V28.1429H712.577V19.9714H619.573V45.1143H712.577V36.9429H627.756ZM698.739 67.8857V99.0286H616.573V67.8857H698.739ZM687.398 79.0571H627.756V87.8571H687.398V79.0571ZM684.398 84.8571V82.0571H630.756V84.8571H684.398ZM610.76 104.829H704.551V62.0857H610.76V104.829ZM613.76 65.0857H701.551V101.829H613.76V65.0857ZM695.739 70.8857H619.573V96.0286H695.739V70.8857Z" fill="url(#paint5_linear_121_3088)"/>
<path d="M123 123H233V131.171H131.183V173.914H233V233H123V224.829H224.817V182.086H123V123ZM216.162 216.029H123V207.857H207.821V199.057H123V190.886H216.162V216.029ZM139.996 139.971H233V148.143H148.179V156.943H233V165.114H139.996V139.971Z" fill="#1E1E1E"/>
<path fill-rule="evenodd" clip-rule="evenodd" d="M120 120H236V134.171H134.183V170.914H236V236H120V221.829H221.817V185.086H120V120ZM224.817 182.086V224.829H123V233H233V173.914H131.183V131.171H233V123H123V182.086H224.817ZM219.162 219.029H120V204.857H204.821V202.057H120V187.886H219.162V219.029ZM207.821 199.057V207.857H123V216.029H216.162V190.886H123V199.057H207.821ZM136.996 136.971H236V151.143H151.179V153.943H236V168.114H136.996V136.971ZM233 156.943V165.114H139.996V139.971H233V148.143H148.179V156.943H233Z" fill="url(#paint6_linear_121_3088)"/>
<path d="M243 123H353V233H243V123ZM302.086 173.914V182.086H293.914V173.914H302.086ZM276.943 156.943H319.057V199.057H276.943V156.943ZM310.886 190.886V165.114H285.114V190.886H310.886ZM259.971 139.971H336.029V216.029H259.971V139.971ZM327.857 207.857V148.143H268.143V207.857H327.857ZM344.829 224.829V131.171H251.171V224.829H344.829Z" fill="#1E1E1E"/>
<path fill-rule="evenodd" clip-rule="evenodd" d="M240 120H356V236H240V120ZM305.086 170.914V185.086H290.914V170.914H305.086ZM273.943 153.943H322.057V202.057H273.943V153.943ZM256.971 136.971H339.029V219.029H256.971V136.971ZM310.886 165.114V190.886H285.114V165.114H310.886ZM288.114 168.114V187.886H307.886V168.114H288.114ZM268.143 148.143V207.857H327.857V148.143H268.143ZM324.857 151.143H271.143V204.857H324.857V151.143ZM251.171 131.171V224.829H344.829V131.171H251.171ZM341.829 134.171H254.171V221.829H341.829V134.171ZM243 123V233H353V123H243ZM302.086 173.914H293.914V182.086H302.086V173.914ZM276.943 156.943V199.057H319.057V156.943H276.943ZM259.971 139.971V216.029H336.029V139.971H259.971Z" fill="url(#paint7_linear_121_3088)"/>
<path d="M363 123H473V233H363V123ZM422.086 173.914V182.086H413.914V173.914H422.086ZM396.943 156.943H439.057V199.057H396.943V156.943ZM430.886 190.886V165.114H405.114V190.886H430.886ZM379.971 139.971H456.029V216.029H379.971V139.971ZM447.857 207.857V148.143H388.143V207.857H447.857ZM464.829 224.829V131.171H371.171V224.829H464.829Z" fill="#1E1E1E"/>
<path fill-rule="evenodd" clip-rule="evenodd" d="M360 120H476V236H360V120ZM425.086 170.914V185.086H410.914V170.914H425.086ZM393.943 153.943H442.057V202.057H393.943V153.943ZM376.971 136.971H459.029V219.029H376.971V136.971ZM430.886 165.114V190.886H405.114V165.114H430.886ZM408.114 168.114V187.886H427.886V168.114H408.114ZM388.143 148.143V207.857H447.857V148.143H388.143ZM444.857 151.143H391.143V204.857H444.857V151.143ZM371.171 131.171V224.829H464.829V131.171H371.171ZM461.829 134.171H374.171V221.829H461.829V134.171ZM363 123V233H473V123H363ZM422.086 173.914H413.914V182.086H422.086V173.914ZM396.943 156.943V199.057H439.057V156.943H396.943ZM379.971 139.971V216.029H456.029V139.971H379.971Z" fill="url(#paint8_linear_121_3088)"/>
<path d="M491.183 228.914V233H483V123H542.17V224.829H584.974V123H593V233H533.987V131.171H491.183V228.914ZM550.983 216.029V123H559.166V207.857H567.979V123H576.162V216.029H550.983ZM525.175 228.914V233H516.991V148.143H508.179V233H499.996V139.971H525.175V228.914Z" fill="#1E1E1E"/>
<path fill-rule="evenodd" clip-rule="evenodd" d="M494.183 236H480V120H545.17V221.829H581.974V120H596V236H530.987V134.171H494.183V236ZM533.987 131.171V233H593V123H584.974V224.829H542.17V123H483V233H491.183V131.171H533.987ZM547.983 219.029V120H562.166V204.857H564.979V120H579.162V219.029H547.983ZM567.979 207.857H559.166V123H550.983V216.029H576.162V123H567.979V207.857ZM528.175 236H513.991V151.143H511.179V236H496.996V136.971H528.175V236ZM508.179 233H499.996V139.971H525.175V233H516.991V148.143H508.179V233Z" fill="url(#paint9_linear_121_3088)"/>
</g>
<defs>
<linearGradient id="paint0_linear_121_3088" x1="0.423096" y1="58.0042" x2="115.577" y2="58.0042" gradientUnits="userSpaceOnUse">
<stop stop-color="#F04F62"/>
<stop offset="0.5" stop-color="#FECE9E"/>
<stop offset="1" stop-color="#79D1F0"/>
</linearGradient>
<linearGradient id="paint1_linear_121_3088" x1="119.577" y1="58.0042" x2="235.577" y2="58.0042" gradientUnits="userSpaceOnUse">
<stop stop-color="#F04F62"/>
<stop offset="0.5" stop-color="#FECE9E"/>
<stop offset="1" stop-color="#79D1F0"/>
</linearGradient>
<linearGradient id="paint2_linear_121_3088" x1="239.577" y1="58.0042" x2="355.577" y2="58.0042" gradientUnits="userSpaceOnUse">
<stop stop-color="#F04F62"/>
<stop offset="0.5" stop-color="#FECE9E"/>
<stop offset="1" stop-color="#79D1F0"/>
</linearGradient>
<linearGradient id="paint3_linear_121_3088" x1="359.577" y1="58.0042" x2="475.577" y2="58.0042" gradientUnits="userSpaceOnUse">
<stop stop-color="#F04F62"/>
<stop offset="0.5" stop-color="#FECE9E"/>
<stop offset="1" stop-color="#79D1F0"/>
</linearGradient>
<linearGradient id="paint4_linear_121_3088" x1="479.577" y1="58.0042" x2="595.577" y2="58.0042" gradientUnits="userSpaceOnUse">
<stop stop-color="#F04F62"/>
<stop offset="0.5" stop-color="#FECE9E"/>
<stop offset="1" stop-color="#79D1F0"/>
</linearGradient>
<linearGradient id="paint5_linear_121_3088" x1="599.577" y1="58.0042" x2="715.577" y2="58.0042" gradientUnits="userSpaceOnUse">
<stop stop-color="#F04F62"/>
<stop offset="0.5" stop-color="#FECE9E"/>
<stop offset="1" stop-color="#79D1F0"/>
</linearGradient>
<linearGradient id="paint6_linear_121_3088" x1="120" y1="178.004" x2="236" y2="178.004" gradientUnits="userSpaceOnUse">
<stop stop-color="#F04F62"/>
<stop offset="0.5" stop-color="#FECE9E"/>
<stop offset="1" stop-color="#79D1F0"/>
</linearGradient>
<linearGradient id="paint7_linear_121_3088" x1="240" y1="178.004" x2="356" y2="178.004" gradientUnits="userSpaceOnUse">
<stop stop-color="#F04F62"/>
<stop offset="0.5" stop-color="#FECE9E"/>
<stop offset="1" stop-color="#79D1F0"/>
</linearGradient>
<linearGradient id="paint8_linear_121_3088" x1="360" y1="178.004" x2="476" y2="178.004" gradientUnits="userSpaceOnUse">
<stop stop-color="#F04F62"/>
<stop offset="0.5" stop-color="#FECE9E"/>
<stop offset="1" stop-color="#79D1F0"/>
</linearGradient>
<linearGradient id="paint9_linear_121_3088" x1="480" y1="178.004" x2="596" y2="178.004" gradientUnits="userSpaceOnUse">
<stop stop-color="#F04F62"/>
<stop offset="0.5" stop-color="#FECE9E"/>
<stop offset="1" stop-color="#79D1F0"/>
</linearGradient>
<clipPath id="clip0_121_3088">
<rect width="716" height="236" fill="white"/>
</clipPath>
</defs>
</svg>
